<mxfile host="Electron" modified="2023-12-07T14:06:26.827Z" agent="Mozilla/5.0 (Windows NT 10.0; Win64; x64) AppleWebKit/537.36 (KHTML, like Gecko) draw.io/22.1.2 Chrome/114.0.5735.289 Electron/25.9.4 Safari/537.36" etag="C7_iFwLFdpwQvzC7nBfd" version="22.1.2" type="device">
  <diagram name="Page-1" id="TqGQI4NSx8cJjzXvK0Dk">
    <mxGraphModel dx="1105" dy="692" grid="1" gridSize="10" guides="1" tooltips="1" connect="1" arrows="1" fold="1" page="0" pageScale="1" pageWidth="827" pageHeight="1169" math="0" shadow="0">
      <root>
        <mxCell id="0" />
        <mxCell id="1" parent="0" />
        <mxCell id="7vJCDfEprl_YRLEwKd14-19" value="" style="edgeStyle=none;curved=1;rounded=0;orthogonalLoop=1;jettySize=auto;html=1;fontSize=12;startSize=8;endSize=8;exitX=0.5;exitY=1;exitDx=0;exitDy=0;" edge="1" parent="1" source="7vJCDfEprl_YRLEwKd14-20" target="7vJCDfEprl_YRLEwKd14-18">
          <mxGeometry relative="1" as="geometry" />
        </mxCell>
        <mxCell id="7vJCDfEprl_YRLEwKd14-17" value="用户端（UI）" style="rounded=0;whiteSpace=wrap;html=1;fontSize=16;" vertex="1" parent="1">
          <mxGeometry x="240" y="40" width="120" height="60" as="geometry" />
        </mxCell>
        <mxCell id="7vJCDfEprl_YRLEwKd14-31" value="" style="edgeStyle=none;curved=1;rounded=0;orthogonalLoop=1;jettySize=auto;html=1;fontSize=12;startSize=8;endSize=8;" edge="1" parent="1" source="7vJCDfEprl_YRLEwKd14-18" target="7vJCDfEprl_YRLEwKd14-27">
          <mxGeometry relative="1" as="geometry" />
        </mxCell>
        <mxCell id="7vJCDfEprl_YRLEwKd14-18" value="" style="rounded=0;whiteSpace=wrap;html=1;fontSize=16;fillColor=none;" vertex="1" parent="1">
          <mxGeometry x="95" y="200" width="410" height="190" as="geometry" />
        </mxCell>
        <mxCell id="7vJCDfEprl_YRLEwKd14-20" value="" style="rounded=0;whiteSpace=wrap;html=1;fontSize=16;fillColor=none;" vertex="1" parent="1">
          <mxGeometry x="130" y="10" width="340" height="120" as="geometry" />
        </mxCell>
        <mxCell id="7vJCDfEprl_YRLEwKd14-21" value="表现层" style="text;html=1;strokeColor=none;fillColor=none;align=center;verticalAlign=middle;whiteSpace=wrap;rounded=0;fontSize=16;" vertex="1" parent="1">
          <mxGeometry x="135" y="10" width="60" height="30" as="geometry" />
        </mxCell>
        <mxCell id="7vJCDfEprl_YRLEwKd14-22" value="业务逻辑层" style="text;html=1;strokeColor=none;fillColor=none;align=center;verticalAlign=middle;whiteSpace=wrap;rounded=0;fontSize=16;" vertex="1" parent="1">
          <mxGeometry x="120" y="220" width="90" height="30" as="geometry" />
        </mxCell>
        <mxCell id="7vJCDfEprl_YRLEwKd14-23" value="数据交互" style="rounded=0;whiteSpace=wrap;html=1;fontSize=16;" vertex="1" parent="1">
          <mxGeometry x="130" y="280" width="120" height="60" as="geometry" />
        </mxCell>
        <mxCell id="7vJCDfEprl_YRLEwKd14-26" value="数据处理" style="rounded=0;whiteSpace=wrap;html=1;fontSize=16;" vertex="1" parent="1">
          <mxGeometry x="340" y="280" width="120" height="60" as="geometry" />
        </mxCell>
        <mxCell id="7vJCDfEprl_YRLEwKd14-27" value="" style="rounded=0;whiteSpace=wrap;html=1;fontSize=16;fillColor=none;" vertex="1" parent="1">
          <mxGeometry x="130" y="470" width="340" height="160" as="geometry" />
        </mxCell>
        <mxCell id="7vJCDfEprl_YRLEwKd14-28" value="数据层" style="text;html=1;strokeColor=none;fillColor=none;align=center;verticalAlign=middle;whiteSpace=wrap;rounded=0;fontSize=16;" vertex="1" parent="1">
          <mxGeometry x="120" y="480" width="90" height="30" as="geometry" />
        </mxCell>
        <mxCell id="7vJCDfEprl_YRLEwKd14-29" value="SQL lite" style="rounded=0;whiteSpace=wrap;html=1;fontSize=16;" vertex="1" parent="1">
          <mxGeometry x="240" y="540" width="120" height="60" as="geometry" />
        </mxCell>
      </root>
    </mxGraphModel>
  </diagram>
</mxfile>
